<?xml version="1.0" encoding="UTF-8"?>
<svg id="Layer_1" data-name="Layer 1" xmlns="http://www.w3.org/2000/svg" viewBox="0 0 1737 1187">
  <defs>
    <style>
      .cls-1 {
        fill: none;
        stroke: #d1b17d;
        stroke-linecap: round;
        stroke-miterlimit: 10;
        stroke-width: 20px;
      }

      .cls-2 {
        fill: #d1b17d;
      }

      .cls-2, .cls-3, .cls-4, .cls-5, .cls-6 {
        stroke-width: 0px;
      }

      .cls-3 {
        fill: #596869;
      }

      .cls-4 {
        fill: #6c8976;
      }

      .cls-5 {
        fill: #e6efe6;
      }

      .cls-6 {
        fill: #79b791;
      }
    </style>
  </defs>
  <path class="cls-5" d="m1003.71,745.06c-3.25,26.66-8.6,52.66-15.86,77.87-19.2,66.7-51.81,127.72-94.73,179.94H114.36c-42.92-52.23-75.53-113.24-94.73-179.94-7.26-25.2-12.61-51.21-15.86-77.87C33.91,429.6,242.14,184.58,495.87,179.61c.99-.03,1.99-.04,2.99-.05,1.62-.02,3.24-.03,4.88-.03s3.26.01,4.89.03c1,.01,2,.02,2.99.05,253.73,4.98,461.95,250,492.09,565.45Z"/>
  <g>
    <g id="_Radial_Repeat_" data-name="&amp;lt;Radial Repeat&amp;gt;">
      <path class="cls-1" d="m407.65,308.6c-7.18-19.72-14.35-39.44-21.53-59.16"/>
    </g>
    <g id="_Radial_Repeat_-2" data-name="&amp;lt;Radial Repeat&amp;gt;">
      <path class="cls-1" d="m509.86,290.57c0-20.99,0-41.97,0-62.96"/>
    </g>
    <g id="_Radial_Repeat_-3" data-name="&amp;lt;Radial Repeat&amp;gt;">
      <path class="cls-1" d="m612.06,308.6c7.18-19.72,14.35-39.44,21.53-59.16"/>
    </g>
  </g>
  <circle class="cls-2" cx="510.54" cy="652.43" r="335.8"/>
  <path class="cls-4" d="m477.4,1114.81l377.87-79.35c12.51-13.01,24.3-26.83,35.32-41.35,37.46-49.4,65.92-107.1,82.68-170.2,6.34-23.84,11-48.44,13.84-73.65,2.17-19.15,3.29-38.66,3.29-58.45,0-199.34-112.95-370.1-273.29-441.15l-239.69,864.15Z"/>
  <path class="cls-4" d="m587.79,1130.49l-432.96-83.89c-14.33-13.76-27.84-28.36-40.47-43.72-42.92-52.23-75.53-113.24-94.73-179.94-7.26-25.2-12.61-51.21-15.86-77.87-2.49-20.24-3.77-40.87-3.77-61.8,0-210.75,129.42-391.29,313.14-466.42l274.64,913.64Z"/>
  <path class="cls-6" d="m767.01,1062.5c-62.46,76.01-157.2,124.5-263.27,124.5s-200.81-48.48-263.27-124.5h526.55Z"/>
  <path class="cls-3" d="m704.05,220.94h-4.68l-187.73,659.82L323.91,220.94h-20.48c-29.52,13.78-57.57,30.51-83.83,49.85l239.87,791.72h104.36l236.91-781.95c-29.89-23.52-62.29-43.58-96.68-59.62Z"/>
  <path class="cls-3" d="m281.61,304.83l167.88,548.36,62.15,203.02,62.15-203.02,165.38-540.21c7.89,5.03,15.63,10.31,23.19,15.84,27.25,19.92,52.23,43.01,74.25,68.63,22.11,25.72,41.22,53.98,56.8,83.99,15.84,30.52,28.05,62.88,36.28,96.21,8.48,34.34,12.78,69.87,12.78,105.62,0,18.05-1.1,36.17-3.28,53.86v.03s0,.03,0,.03c-2.79,22.86-7.43,45.65-13.8,67.77-8.25,28.66-19.51,56.59-33.47,83.01-13.76,26.04-30.25,50.82-49.02,73.65-83.76,101.93-207.38,160.39-339.16,160.39-113.88,0-221.8-43.43-303.9-122.3-12.39-11.89-24.26-24.72-35.26-38.1-18.76-22.82-35.25-47.6-49.01-73.64-13.96-26.42-25.22-54.35-33.48-83.02-6.37-22.1-11.01-44.89-13.8-67.75v-.03s0-.03,0-.03c-2.18-17.69-3.28-35.82-3.28-53.86,0-36.95,4.59-73.63,13.64-109.04,8.78-34.35,21.78-67.61,38.64-98.88,33.17-61.5,81.24-114.9,139.02-154.44,8.24-5.64,16.69-11,25.31-16.07m422.44-83.89h-4.68l-187.73,613.22L323.91,220.94h-20.48c-29.52,12.81-57.57,28.35-83.83,46.32C87,357.98,0,510.47,0,683.26,0,704.19,1.28,724.82,3.77,745.06c3.25,26.66,8.6,52.67,15.86,77.87,19.2,66.7,51.81,127.72,94.73,179.94,12.63,15.36,26.13,29.96,40.47,43.72,90.52,86.96,213.47,140.41,348.91,140.41,156.88,0,297-71.71,389.38-184.13,42.92-52.23,75.53-113.24,94.73-179.94,7.26-25.2,12.61-51.21,15.86-77.87,2.49-20.24,3.77-40.87,3.77-61.8,0-167.15-81.41-315.29-206.75-406.91-29.89-21.85-62.29-40.5-96.68-55.41h0Z"/>
</svg>